<?xml version="1.0" standalone="no"?>
<!DOCTYPE svg PUBLIC "-//W3C//DTD SVG 20010904//EN"
 "http://www.w3.org/TR/2001/REC-SVG-20010904/DTD/svg10.dtd">
<svg version="1.0" xmlns="http://www.w3.org/2000/svg"
 width="96.000000pt" height="96.000000pt" viewBox="0 0 96.000000 96.000000"
 preserveAspectRatio="xMidYMid meet">

<g transform="translate(0.000000,96.000000) scale(0.100000,-0.100000)"
fill="#000000" stroke="none">
<path d="M0 480 l0 -480 480 0 480 0 0 480 0 480 -480 0 -480 0 0 -480z m433
120 c10 0 17 -8 17 -19 0 -16 -6 -17 -47 -14 -42 4 -51 2 -73 -21 -20 -22 -24
-37 -24 -83 0 -49 3 -58 29 -80 24 -21 35 -24 73 -19 38 5 43 4 40 -12 -2 -13
-15 -18 -59 -20 -69 -4 -105 21 -119 83 -24 105 43 206 125 189 11 -2 28 -4
38 -4z m247 -15 c0 -12 -13 -15 -60 -15 l-60 0 0 -40 0 -40 55 0 c42 0 55 -3
55 -15 0 -12 -13 -15 -55 -15 l-55 0 0 -50 0 -50 60 0 c47 0 60 -3 60 -15 0
-12 -16 -15 -80 -15 l-80 0 0 135 0 135 80 0 c64 0 80 -3 80 -15z m-483 -42
c2 -5 -22 -30 -53 -54 l-56 -43 24 -21 c13 -11 39 -33 57 -48 25 -20 31 -31
23 -39 -8 -8 -31 5 -82 47 l-71 58 38 31 c21 17 51 43 68 58 30 27 46 31 52
11z m686 -132 c-79 -70 -103 -85 -115 -73 -9 9 -4 17 18 34 16 13 42 34 57 48
l29 26 -56 44 c-41 33 -52 47 -45 57 9 10 27 0 81 -45 l70 -57 -39 -34z"/>
</g>
</svg>
